<svg xmlns="http://www.w3.org/2000/svg" width="400" height="400" viewBox="0 0 400 400">
  <g opacity="1">
    <path d="M -50 0 Q -25 5.0, 0 15.0 Q 25 19.99315812451352, 50 29.99315812451352 Q 75 16.290483124535733, 100 26.290483124535733 Q 125 -6.116541813787112, 150 3.883458186212888 Q 175 -31.378252454365704, 200 -21.378252454365704 Q 225 -41.19563972646677, 250 -31.195639726466773 Q 275 -30.438197412985197, 300 -20.438197412985197 Q 325 -10.907118334986164, 350 -0.9071183349861638 Q 375 -0.017489380486543027, 400 9.982510619513457 " fill="none" stroke="#ffffff" stroke-width="1.5" stroke-linecap="round" /><path d="M -50 30 Q -25 44.933954284180025, 0 54.933954284180025 Q 25 51.34968696486923, 50 61.34968696486923 Q 75 37.82240016119734, 100 47.82240016119734 Q 125 18.027688522197025, 150 28.027688522197025 Q 175 8.926049094759328, 200 18.92604909475933 Q 225 15.472748061037027, 250 25.472748061037027 Q 275 26.89752942616864, 300 36.89752942616864 Q 325 27.77001069926363, 350 37.77001069926363 Q 375 13.392482255828455, 400 23.392482255828455 " fill="none" stroke="#ffffff" stroke-width="1.5" stroke-linecap="round" /><path d="M -50 60 Q -25 61.9437459883065, 0 71.9437459883065 Q 25 53.883458186212884, 50 63.883458186212884 Q 75 42.96848468186353, 100 52.96848468186353 Q 125 43.985252935092824, 150 53.985252935092824 Q 175 59.41169003602148, 200 69.41169003602148 Q 225 76.30347040273136, 250 86.30347040273136 Q 275 77.89169952048972, 300 87.89169952048972 Q 325 59.30342772985067, 350 69.30342772985067 Q 375 32.87737523400546, 400 42.87737523400546 " fill="none" stroke="#ffffff" stroke-width="1.5" stroke-linecap="round" /><path d="M -50 90 Q -25 67.97251271219066, 0 77.97251271219066 Q 25 52.846795860637435, 50 62.846795860637435 Q 75 54.5793119585301, 100 64.5793119585301 Q 125 75.47274806103702, 150 85.47274806103702 Q 175 101.24426656239787, 200 111.24426656239787 Q 225 112.95090336082322, 250 122.95090336082322 Q 275 103.24236970483513, 300 113.24236970483513 Q 325 82.28331621056819, 350 92.28331621056819 Q 375 68.10473045700802, 400 78.10473045700802 " fill="none" stroke="#ffffff" stroke-width="1.5" stroke-linecap="round" /><path d="M -50 120 Q -25 85.05929578088725, 0 95.05929578088725 Q 25 76.77466419737529, 50 86.77466419737529 Q 75 89.5618025870148, 100 99.5618025870148 Q 125 111.12257774117178, 150 121.12257774117178 Q 175 123.54496238426051, 200 133.54496238426051 Q 225 119.30342772985068, 250 129.30342772985068 Q 275 107.22411237023469, 300 117.22411237023469 Q 325 103.16393429734151, 350 113.16393429734151 Q 375 114.2685416399913, 400 124.2685416399913 " fill="none" stroke="#ffffff" stroke-width="1.5" stroke-linecap="round" /><path d="M -50 150 Q -25 125.07644728868561, 0 135.0764472886856 Q 25 131.24975304455978, 50 141.24975304455978 Q 75 143.33507766142162, 100 153.33507766142162 Q 125 145.7403146231057, 150 155.7403146231057 Q 175 133.39248225582847, 200 143.39248225582847 Q 225 117.1024235490086, 250 127.1024235490086 Q 275 113.75799332077881, 300 123.75799332077881 Q 325 130.32959966500684, 350 140.32959966500684 Q 375 156.5078753245549, 400 166.5078753245549 " fill="none" stroke="#ffffff" stroke-width="1.5" stroke-linecap="round" /><path d="M -50 180 Q -25 178.81424433577695, 0 188.81424433577695 Q 25 193.76977858874469, 50 203.76977858874469 Q 75 194.04209771441603, 100 204.04209771441603 Q 125 175.08043271337345, 150 185.08043271337345 Q 175 149.31492346925845, 200 159.31492346925845 Q 225 135.95334555962398, 250 145.95334555962398 Q 275 144.41865419098463, 300 154.41865419098463 Q 325 166.38618650332882, 350 176.38618650332882 Q 375 183.56994456569026, 400 193.56994456569026 " fill="none" stroke="#ffffff" stroke-width="1.5" stroke-linecap="round" /><path d="M -50 210 Q -25 224.44826578952535, 0 234.44826578952535 Q 25 234.435979318388, 50 244.435979318388 Q 75 222.64492400459062, 100 232.64492400459062 Q 125 199.7496243965815, 150 209.7496243965815 Q 175 184.25512865093432, 200 194.25512865093432 Q 225 186.1066046485296, 250 196.1066046485296 Q 275 198.59868642357864, 300 208.59868642357864 Q 325 205.76529680453544, 350 215.76529680453544 Q 375 198.15586935413566, 400 208.15586935413566 " fill="none" stroke="#ffffff" stroke-width="1.5" stroke-linecap="round" /><path d="M -50 240 Q -25 247.60466442533846, 0 257.60466442533846 Q 25 243.44189947236052, 50 253.44189947236052 Q 75 230.42811159736218, 100 240.42811159736218 Q 125 224.6490102549063, 150 234.6490102549063 Q 175 233.67109593974678, 200 243.67109593974678 Q 225 249.0333873509017, 250 259.0333873509017 Q 275 254.06707989584584, 300 264.06707989584584 Q 325 239.84381981168065, 350 249.84381981168065 Q 375 214.43727935374451, 400 224.43727935374451 " fill="none" stroke="#ffffff" stroke-width="1.5" stroke-linecap="round" /><path d="M -50 270 Q -25 254.57541577656497, 0 264.57541577656497 Q 25 240.08939924194027, 50 250.08939924194027 Q 75 237.81769536185675, 100 247.81769536185675 Q 125 254.46807140751673, 150 264.46807140751673 Q 175 279.7118745516824, 200 289.7118745516824 Q 225 294.46096149981776, 250 304.46096149981776 Q 275 287.4083111028978, 300 297.4083111028978 Q 325 264.8719802810676, 350 274.8719802810676 Q 375 245.02698294435726, 400 255.02698294435726 " fill="none" stroke="#ffffff" stroke-width="1.5" stroke-linecap="round" /><path d="M -50 300 Q -25 266.53350484606585, 0 276.53350484606585 Q 25 255.04261352604027, 50 265.04261352604027 Q 75 265.60158771172115, 100 275.60158771172115 Q 125 289.37316219626047, 150 299.37316219626047 Q 175 307.62964660676823, 200 317.62964660676823 Q 225 308.20528657066774, 250 318.20528657066774 Q 275 295.5504674818483, 300 305.5504674818483 Q 325 285.4208645483292, 350 295.4208645483292 Q 375 289.38280936432193, 400 299.38280936432193 " fill="none" stroke="#ffffff" stroke-width="1.5" stroke-linecap="round" /><path d="M -50 330 Q -25 300.0665813388067, 0 310.0665813388067 Q 25 302.13548772005146, 50 312.13548772005146 Q 75 315.81726780038605, 100 325.81726780038605 Q 125 324.85456477095175, 150 334.85456477095175 Q 175 319.33880287487216, 200 329.33880287487216 Q 225 305.21175512642634, 250 315.21175512642634 Q 275 298.58954965527965, 300 308.58954965527965 Q 325 310.17978483209185, 350 320.17978483209185 Q 375 334.30607800840863, 400 344.30607800840863 " fill="none" stroke="#ffffff" stroke-width="1.5" stroke-linecap="round" /><path d="M -50 360 Q -25 351.9263510209787, 0 361.9263510209787 Q 25 365.6529121178279, 50 375.6529121178279 Q 75 369.8785325837182, 100 379.8785325837182 Q 125 355.87270288320246, 150 365.87270288320246 Q 175 331.6558607305519, 200 341.6558607305519 Q 225 315.8144678194632, 250 325.8144678194632 Q 275 321.3133011362963, 300 331.3133011362963 Q 325 343.9673656529867, 350 353.9673656529867 Q 375 366.0764045074234, 400 376.0764045074234 " fill="none" stroke="#ffffff" stroke-width="1.5" stroke-linecap="round" /><path d="M -50 390 Q -25 402.01504245828573, 0 412.01504245828573 Q 25 414.77912130157614, 50 424.77912130157614 Q 75 405.6635661841297, 100 415.6635661841297 Q 125 381.49150504799377, 150 391.49150504799377 Q 175 360.8384356322296, 200 370.8384356322296 Q 225 357.8472011446266, 250 367.8472011446266 Q 275 370.4114712571123, 300 380.4114712571123 Q 325 383.3013226716069, 350 393.3013226716069 Q 375 383.06615884245093, 400 393.06615884245093 " fill="none" stroke="#ffffff" stroke-width="1.5" stroke-linecap="round" /><path d="M -50 420 Q -25 431.86320538701494, 0 441.86320538701494 Q 25 431.9295667527907, 50 441.9295667527907 Q 75 417.8536353884516, 100 427.8536353884516 Q 125 405.73902435008756, 150 415.73902435008756 Q 175 407.6380644455538, 200 417.6380644455538 Q 225 420.24711557455413, 250 430.24711557455413 Q 275 428.32529048437334, 300 438.32529048437334 Q 325 419.60005885078124, 350 429.60005885078124 Q 375 397.23690087804516, 400 407.23690087804516 " fill="none" stroke="#ffffff" stroke-width="1.5" stroke-linecap="round" /><circle cx="30" cy="50" r="4" fill="none" stroke="#ffffff" stroke-width="1.5" /><circle cx="110" cy="170" r="4" fill="none" stroke="#ffffff" stroke-width="1.5" /><circle cx="190" cy="290" r="4" fill="none" stroke="#ffffff" stroke-width="1.5" /><circle cx="270" cy="10" r="4" fill="none" stroke="#ffffff" stroke-width="1.5" /><circle cx="350" cy="130" r="4" fill="none" stroke="#ffffff" stroke-width="1.5" /><path d="M 66 20 L 74 20 M 70 16 L 70 24" fill="none" stroke="#ffffff" stroke-width="1.5" stroke-linecap="round" /><path d="M 176 110 L 184 110 M 180 106 L 180 114" fill="none" stroke="#ffffff" stroke-width="1.5" stroke-linecap="round" /><path d="M 286 200 L 294 200 M 290 196 L 290 204" fill="none" stroke="#ffffff" stroke-width="1.5" stroke-linecap="round" /><path d="M -4 290 L 4 290 M 0 286 L 0 294" fill="none" stroke="#ffffff" stroke-width="1.5" stroke-linecap="round" />
  </g>
</svg>